<?xml version="1.0" encoding="utf-8"?>
<?xml-stylesheet type="text/xsl" href="rss1.xsl"?>
<rss version="2.0" xmlns:atom="http://www.w3.org/2005/Atom" xmlns:content="http://purl.org/rss/1.0/modules/content/" xmlns:dc="http://purl.org/dc/elements/1.1/" xmlns:media="http://search.yahoo.com/mrss/">
<channel>
 <title>Getty</title>
 <link>http://www.gettyimg.com/</link>
 <atom:link href="http://www.gettyimg.com/" rel="self" type="application/rss+xml" />

 
                <item>
                <title><![CDATA[【Cinema Center】MOVIE - R.L. Stine's Monsterville: The Cabinet of Souls (2015) 1080p BluRay x264 - VALUE]]></title>
                <link><![CDATA[https://sharemania.us/threads/r-l-stines-monsterville-the-cabinet-of-souls-2015-1080p-bluray-x264-value.240197/]]></link>
                <description><![CDATA[<article>
<blockquote class="messageText SelectQuoteContainer ugc baseHtml">
<div style="text-align: center"><img src="https://m.media-amazon.com/images/S/pv-target-images/f014785cdbb9becb2fd91445c68000375081c1d5a299ee0f13e8aa4baae4755b.jpg" class="bbCodeImage LbImage" alt="[​IMG]" data-url="https://m.media-amazon.com/images/S/pv-target-images/f014785cdbb9becb2fd91445c68000375081c1d5a299ee0f13e8aa4baae4755b.jpg" style=""> <br>
<br>
Teenage friends must resist the spell of an evil showman staging a house of horrors show in their small town.<br>
<br>
Download:<br>
<br>
<div class="bbCodeBlock bbCodeVfcHH HiddenContent">
<div class="attribution type">Hidden Content:</div>
<blockquote>You must either reply or click 'Like' to see the hidden information contained here.</blockquote>
</div></div>
<div class="messageTextEndMarker">&nbsp;</div>
</blockquote>
</article>]]></description>
                <author><![CDATA[sunnyillion]]></author>
                </item>

                
                <item>
                <title><![CDATA[【Music Videos】Banda Blanca - Sopa De Caracol (Otro Video)]]></title>
                <link><![CDATA[https://sharemania.us/threads/banda-blanca-sopa-de-caracol-otro-video.240196/]]></link>
                <description><![CDATA[<article>
<blockquote class="messageText SelectQuoteContainer ugc baseHtml">
<img src="https://i.ibb.co/zSjzJvP/Banda-Blanca-Sopa-De-Caracol-Otro-Video-VOB-thumbs-2024-03-17-23-22-47.jpg" class="bbCodeImage LbImage" alt="[​IMG]" data-url="https://i.ibb.co/zSjzJvP/Banda-Blanca-Sopa-De-Caracol-Otro-Video-VOB-thumbs-2024-03-17-23-22-47.jpg" style=""> <br>
<br>
<div class="ToggleTriggerAnchor bbCodeSpoilerContainer">
<button type="button" class="button bbCodeSpoilerButton ToggleTrigger Tooltip JsOnly" data-target="> .SpoilerTarget"><span>Spoiler: <span class="SpoilerTitle">MediaInfo</span></span></button>
<div class="SpoilerTarget bbCodeSpoilerText">Banda Blanca-Sopa De Caracol (Otro Video).VOB<br>
Format : MPEG-PS<br>
File size : 307 MiB<br>
Duration : 4 min 46 s<br>
Overall bit rate mode : Variable<br>
Overall bit rate : 8 983 kb/s<br>
Frame rate : 29.970 FPS<br>
<br>
Video<br>
ID : 224 (0xE0)<br>
Format : MPEG Video<br>
Format version : Version 2<br>
Format profile : Main@Main<br>
Format settings : BVOP<br>
Format settings, BVOP : Yes<br>
Format settings, Matrix : Default<br>
Format settings, GOP : M=3, N=15<br>
Duration : 4 min 46 s<br>
Bit rate mode : Variable<br>
Bit rate : 8 485 kb/s<br>
Maximum bit rate : 8 880 kb/s<br>
Width : 720 pixels<br>
Height : 480 pixels<br>
Display aspect ratio : 4:3<br>
Frame rate : 29.970 (30000/1001) FPS<br>
Standard : NTSC<br>
Color space : YUV<br>
Chroma subsampling : 4:2:0<br>
Bit depth : 8 bits<br>
Scan type : Progressive<br>
Compression mode : Lossy<br>
Bits/(Pixel*Frame) : 0.819<br>
Time code of first frame : 00:00:00:00<br>
Time code source : Group of pictures header<br>
GOP, Open/Closed : Closed<br>
Stream size : 290 MiB (94%)<br>
<br>
Audio<br>
ID : 192 (0xC0)<br>
Format : MPEG Audio<br>
Format version : Version 1<br>
Format profile : Layer 2<br>
Duration : 4 min 46 s<br>
Bit rate mode : Constant<br>
Bit rate : 320 kb/s<br>
Channel(s) : 2 channels<br>
Sampling rate : 48.0 kHz<br>
Frame rate : 41.667 FPS (1152 SPF)<br>
Compression mode : Lossy<br>
Delay relative to video : 34 ms<br>
Stream size : 10.9 MiB (4%)</div>
</div><br>
<div class="bbCodeBlock bbCodeVfcHH HiddenContent">
<div class="attribution type">Hidden Content:</div>
<blockquote>You must reply before you can see the hidden data contained here.</blockquote>
</div>
<div class="messageTextEndMarker">&nbsp;</div>
</blockquote>
</article>]]></description>
                <author><![CDATA[DJ-RoGeRs-BS]]></author>
                </item>

                </channel></rss>